<?xml version="1.0" standalone="no"?>
<!DOCTYPE svg PUBLIC "-//W3C//DTD SVG 20010904//EN"
 "http://www.w3.org/TR/2001/REC-SVG-20010904/DTD/svg10.dtd">
<svg version="1.0" xmlns="http://www.w3.org/2000/svg"
 width="500.000000pt" height="500.000000pt" viewBox="0 0 500.000000 500.000000"
 preserveAspectRatio="xMidYMid meet">

<g transform="translate(0.000000,500.000000) scale(0.100000,-0.100000)"
fill="#000000" stroke="none">
<path d="M0 4200 l0 -800 564 0 564 0 256 392 c142 215 258 395 259 399 1 4
-115 188 -258 408 l-260 401 -562 0 -563 0 0 -800z"/>
<path d="M2462 4883 l-33 -4 7 -52 c3 -29 7 -58 9 -64 7 -23 25 -14 25 12 0
30 25 34 40 5 6 -11 17 -20 25 -20 18 0 20 16 4 26 -6 4 -8 20 -5 39 6 31 -13
68 -32 63 -4 0 -22 -3 -40 -5z m46 -35 c-7 -20 -48 -23 -48 -4 0 11 9 16 26
16 16 0 24 -5 22 -12z"/>
<path d="M2588 4825 l-3 -65 43 0 c31 0 42 4 42 15 0 10 -10 15 -31 15 -20 0
-29 4 -26 13 2 6 16 12 30 12 16 -1 27 5 27 12 0 8 -12 13 -31 13 -41 0 -33
24 9 28 48 5 38 22 -12 22 l-44 0 -4 -65z"/>
<path d="M2806 4865 c-25 -25 -19 -44 19 -66 19 -12 32 -25 29 -30 -8 -14 -34
-10 -40 6 -7 18 -34 20 -34 2 0 -40 81 -53 101 -15 12 23 5 33 -47 64 -11 7
-15 15 -11 20 4 4 21 0 37 -10 25 -14 30 -15 30 -3 0 33 -60 55 -84 32z"/>
<path d="M2336 4856 c-43 -14 -60 -36 -27 -36 16 0 23 -11 34 -46 22 -75 41
-47 22 34 -6 26 -4 32 9 32 9 0 16 7 16 15 0 17 -1 17 -54 1z"/>
<path d="M2931 4785 c-12 -31 -21 -58 -21 -60 0 -3 17 -12 37 -20 44 -19 72
-3 30 16 -26 12 -40 46 -14 36 6 -3 20 -8 30 -12 12 -5 17 -2 17 8 0 8 -11 19
-25 24 -16 5 -22 12 -16 21 6 10 14 10 34 3 21 -8 27 -8 27 3 0 12 -47 36 -71
36 -4 0 -17 -25 -28 -55z"/>
<path d="M2220 4809 c0 -6 5 -19 11 -31 16 -29 4 -33 -29 -9 -58 41 -71 23
-37 -53 18 -40 29 -54 40 -50 13 5 13 9 -1 36 -9 16 -14 32 -12 34 2 2 20 -7
39 -20 55 -37 67 -21 39 48 -13 31 -30 56 -37 56 -7 0 -13 -5 -13 -11z"/>
<path d="M3063 4750 c-28 -47 -29 -72 -5 -93 34 -31 68 -22 97 26 14 24 25 49
25 56 0 23 -25 5 -45 -32 -20 -38 -51 -49 -61 -23 -3 8 4 32 15 54 18 35 19
52 2 52 -3 0 -16 -18 -28 -40z"/>
<path d="M2014 4705 c-21 -33 -11 -69 27 -97 25 -19 28 -19 58 -4 64 34 43
118 -32 124 -29 3 -39 -2 -53 -23z m82 -20 c29 -44 -9 -84 -46 -50 -23 20 -26
45 -8 63 19 19 36 14 54 -13z"/>
<path d="M2525 4704 c-165 -24 -328 -106 -443 -223 -152 -154 -222 -327 -222
-546 0 -167 15 -211 175 -511 76 -142 151 -279 165 -304 34 -56 271 -503 331
-623 46 -92 71 -127 92 -127 34 0 30 -7 374 640 25 47 117 218 203 380 99 184
164 318 174 355 104 409 -141 829 -549 939 -60 16 -242 28 -300 20z m243 -110
c124 -25 233 -84 328 -179 135 -134 194 -265 201 -450 8 -181 14 -166 -348
-844 -203 -379 -325 -598 -329 -589 -432 805 -633 1189 -647 1235 -28 92 -23
265 10 368 59 180 177 320 338 399 150 74 287 93 447 60z"/>
<path d="M2602 4518 c3 -39 6 -43 31 -46 15 -2 27 1 27 7 0 6 -9 11 -20 11
-28 0 -25 20 3 21 21 0 21 1 -3 11 -25 11 -25 11 -2 15 33 6 27 23 -9 23 -29
0 -30 -1 -27 -42z"/>
<path d="M2508 4510 c4 -37 22 -58 22 -25 0 8 5 15 10 15 6 0 13 -7 16 -15 11
-28 20 -15 16 25 -4 37 -6 40 -36 40 -31 0 -31 -1 -28 -40z m42 20 c0 -5 -5
-10 -11 -10 -5 0 -7 5 -4 10 3 6 8 10 11 10 2 0 4 -4 4 -10z"/>
<path d="M2738 4533 c-10 -12 -8 -18 12 -33 14 -10 21 -22 17 -26 -4 -4 -13
-2 -19 4 -17 17 -33 15 -18 -3 7 -8 21 -15 32 -15 29 0 33 28 7 50 -13 10 -19
19 -12 20 6 0 15 -4 18 -10 9 -15 25 -12 19 4 -8 21 -41 26 -56 9z"/>
<path d="M2445 4533 c-27 -7 -44 -23 -23 -23 9 0 21 -13 27 -30 14 -41 25 -38
17 5 -4 22 -3 35 4 35 5 0 10 5 10 10 0 10 -3 11 -35 3z"/>
<path d="M2822 4495 c-14 -31 -15 -55 -3 -55 5 0 18 -3 28 -6 17 -5 17 -5 1 9
-24 19 -23 30 2 22 25 -8 26 3 3 22 -17 13 -16 14 5 8 25 -7 31 10 6 19 -25
10 -30 7 -42 -19z"/>
<path d="M2374 4485 c7 -26 6 -26 -19 -9 -34 22 -42 11 -22 -31 19 -41 42 -49
27 -10 -9 25 -9 25 16 9 32 -22 39 -14 24 30 -13 41 -36 50 -26 11z"/>
<path d="M2902 4465 c-17 -36 -15 -53 6 -63 24 -13 40 -5 57 28 20 39 3 47
-19 9 -31 -52 -47 -27 -21 34 11 27 -11 20 -23 -8z"/>
<path d="M2249 4441 c-21 -16 -22 -22 -11 -45 8 -17 19 -26 36 -26 47 0 61 50
20 77 -19 12 -24 11 -45 -6z m39 -13 c18 -18 14 -38 -7 -38 -23 0 -35 15 -27
35 7 18 18 19 34 3z"/>
<path d="M3021 4384 c-23 -29 -30 -57 -9 -36 8 8 17 8 31 1 15 -8 23 -7 35 5
14 14 14 17 -3 36 -24 26 -29 25 -54 -6z m44 -14 c3 -5 2 -10 -4 -10 -5 0 -13
5 -16 10 -3 6 -2 10 4 10 5 0 13 -4 16 -10z"/>
<path d="M2162 4378 c-19 -19 -14 -45 10 -62 19 -13 25 -14 43 -2 22 15 33 46
16 46 -6 0 -11 -6 -11 -14 0 -24 -21 -30 -38 -12 -16 16 -15 18 8 36 23 18 24
20 5 20 -12 0 -26 -5 -33 -12z"/>
<path d="M2500 4342 c-114 -38 -209 -122 -263 -232 -30 -62 -32 -71 -32 -180
0 -109 2 -118 32 -181 19 -39 56 -89 87 -121 253 -252 678 -108 729 247 27
188 -90 386 -270 455 -80 31 -208 37 -283 12z m243 -98 c47 -17 118 -67 144
-103 56 -75 68 -112 68 -211 0 -84 -3 -101 -27 -145 -134 -255 -486 -250 -603
7 -76 167 -10 354 156 439 79 40 173 44 262 13z"/>
<path d="M3085 4320 c-28 -29 -28 -30 -10 -50 20 -22 35 -19 16 4 -8 10 -9 16
-1 21 5 3 10 1 10 -4 0 -6 5 -11 11 -11 6 0 8 9 3 22 -6 20 -5 21 10 9 24 -20
33 -4 10 19 -20 20 -20 20 -49 -10z"/>
<path d="M2110 4319 c0 -6 8 -18 18 -26 15 -13 14 -14 -15 -9 -45 7 -49 -8
-11 -38 34 -26 50 -27 28 -1 -11 13 -9 15 13 15 40 0 40 15 2 44 -19 15 -35
22 -35 15z"/>
<path d="M3163 4266 c3 -9 -4 -21 -19 -30 -13 -9 -24 -21 -24 -27 0 -7 11 -4
26 6 14 9 32 14 40 11 18 -7 18 13 0 37 -16 21 -30 23 -23 3z"/>
<path d="M2036 4218 c-15 -22 -14 -23 21 -45 l38 -23 13 26 c8 14 11 28 8 31
-3 3 -8 -2 -12 -11 -9 -23 -27 -20 -19 4 4 11 2 20 -4 20 -6 0 -11 -4 -11 -10
0 -5 -5 -10 -11 -10 -6 0 -8 9 -4 20 8 26 0 25 -19 -2z"/>
<path d="M3241 4611 c-26 -31 -38 -52 -31 -56 6 -4 19 0 29 9 16 15 21 15 46
2 59 -31 91 32 39 73 -15 12 -30 21 -34 21 -5 0 -27 -22 -49 -49z m79 -17 c0
-18 -14 -18 -30 1 -16 19 -3 40 16 24 8 -6 14 -18 14 -25z"/>
<path d="M1891 4603 c-35 -43 -3 -103 54 -103 36 0 65 26 65 58 0 30 -16 28
-32 -5 -7 -14 -18 -28 -25 -30 -13 -5 -53 31 -53 46 0 14 30 42 40 36 4 -3 13
2 20 10 11 13 8 15 -18 15 -21 0 -37 -8 -51 -27z"/>
<path d="M3347 4517 l-48 -42 33 -33 c40 -38 57 -32 28 9 -26 35 -6 53 20 19
12 -16 19 -19 25 -11 4 7 -1 21 -10 31 -25 27 1 37 30 10 35 -33 43 -5 9 31
-15 16 -30 29 -33 29 -3 0 -28 -19 -54 -43z"/>
<path d="M1804 4519 c-3 -6 6 -22 22 -36 l29 -24 -47 4 c-73 7 -77 -11 -13
-61 37 -29 56 -38 61 -30 4 6 -4 20 -19 33 -15 11 -27 23 -27 25 0 3 22 3 50
2 62 -5 66 12 13 54 -53 42 -61 46 -69 33z"/>
<path d="M3479 4453 c-1 -5 -1 -16 0 -25 1 -10 -15 -28 -38 -43 -24 -17 -38
-32 -34 -41 4 -10 16 -6 51 18 39 27 47 29 56 16 6 -8 17 -13 23 -11 9 3 3 19
-18 49 -30 44 -38 51 -40 37z"/>
<path d="M1692 4359 l-22 -38 52 -31 c29 -16 56 -30 60 -30 10 0 47 68 41 74
-12 11 -20 6 -32 -21 -9 -20 -15 -23 -24 -14 -9 9 -9 16 1 31 15 25 15 30 -1
30 -7 0 -18 -10 -25 -21 -10 -15 -17 -18 -24 -11 -8 8 -6 18 5 36 12 18 13 25
4 29 -7 3 -23 -12 -35 -34z"/>
<path d="M4251 4108 c-4 -13 -11 -44 -15 -70 -4 -27 -10 -48 -14 -48 -4 0 -39
13 -77 30 -75 32 -115 38 -115 17 0 -18 66 -153 79 -161 5 -4 -1 18 -15 49
-14 30 -24 64 -22 76 3 19 6 19 76 -16 39 -20 72 -42 72 -48 0 -25 -32 -56
-110 -111 -104 -73 -127 -108 -138 -211 -6 -53 -18 -98 -36 -134 -42 -82 -22
-124 90 -186 62 -35 71 -37 123 -31 31 3 67 8 81 11 22 5 31 -3 73 -65 27 -39
51 -69 54 -66 6 6 -63 122 -78 131 -16 11 -10 22 21 35 28 12 33 10 76 -26 26
-20 73 -61 104 -91 32 -29 61 -53 65 -53 15 0 -71 93 -136 146 -38 31 -66 61
-62 67 4 6 0 8 -10 4 -9 -3 -36 5 -62 19 -54 31 -60 19 -8 -15 l36 -23 -24
-14 c-22 -11 -27 -10 -51 14 -16 14 -28 21 -28 15 0 -6 7 -16 15 -23 23 -19
18 -27 -21 -40 -48 -16 -109 -6 -172 30 -56 33 -61 44 -36 91 19 38 12 63 -17
54 -18 -6 -18 -2 11 51 27 51 30 65 24 110 -7 63 7 94 69 151 60 56 112 80
203 98 42 8 83 20 90 26 19 15 18 73 -2 110 -8 17 -14 32 -12 34 2 2 69 -45
149 -104 156 -117 216 -177 305 -302 63 -89 83 -99 36 -17 -50 86 -160 216
-241 285 -101 85 -301 223 -323 223 -10 0 -22 -10 -27 -22z"/>
<path d="M4078 3663 c-23 -6 -22 -9 3 -44 27 -39 62 -38 100 3 23 24 27 33 17
39 -14 9 -90 10 -120 2z"/>
<path d="M4305 3388 c44 -24 104 -60 133 -82 29 -21 55 -36 58 -33 9 8 -106
95 -161 122 -91 44 -114 39 -30 -7z"/>
<path d="M851 3033 c-31 -26 -851 -2288 -851 -2348 0 -65 20 -75 145 -75 80 1
96 3 80 12 -38 22 -45 41 -41 103 3 48 82 273 386 1113 l382 1052 584 0 c321
0 584 3 584 8 0 4 -14 39 -32 79 l-33 72 -591 1 c-549 0 -593 -1 -613 -17z"/>
<path d="M3128 2973 l-35 -78 613 -3 612 -2 7 -31 7 -31 27 26 c49 47 121 25
137 -41 10 -37 -11 -208 -32 -264 l-17 -46 274 -803 274 -803 3 235 2 236
-280 823 c-201 590 -286 829 -301 842 -20 16 -65 17 -639 17 l-617 0 -35 -77z"/>
<path d="M865 2156 c-44 -19 -74 -96 -42 -110 10 -5 10 -7 0 -12 -10 -4 -13
-91 -13 -384 0 -293 3 -380 13 -384 10 -5 10 -7 0 -12 -23 -11 -15 -82 12
-109 24 -25 24 -25 240 -25 145 0 215 3 215 11 0 5 4 8 8 5 9 -6 10 -4 18 67
l6 47 -241 0 c-154 0 -241 4 -241 10 0 6 87 10 240 10 l240 0 0 380 0 380
-240 0 c-150 0 -240 4 -240 10 0 6 92 11 243 12 l242 3 -2 35 c-1 35 -1 35 12
10 8 -14 14 -19 15 -12 0 20 -59 69 -92 76 -60 12 -362 6 -393 -8z m283 -53
c-27 -2 -69 -2 -95 0 -27 2 -5 3 47 3 52 0 74 -1 48 -3z m162 -448 l0 -355
-112 1 c-79 1 -103 3 -80 9 19 4 39 13 44 18 16 16 2 41 -28 52 l-26 10 81
153 c44 85 83 172 87 193 9 61 -12 123 -60 170 -99 99 -249 75 -311 -49 -43
-87 -37 -117 59 -302 l83 -161 -28 -17 c-47 -27 -37 -53 25 -68 20 -4 -13 -7
-86 -8 l-118 -1 0 355 0 355 235 0 235 0 0 -355z m-150 279 c29 -14 72 -59 90
-92 6 -13 12 -47 12 -76 1 -47 -9 -71 -88 -224 -49 -94 -91 -172 -94 -172 -7
0 -159 289 -177 335 -6 16 -12 44 -12 61 -1 41 44 129 79 154 53 38 132 44
190 14z m-92 -580 c8 -14 10 -14 21 0 17 20 45 21 60 2 10 -12 8 -17 -8 -25
-48 -26 -172 1 -131 29 22 14 48 12 58 -6z m56 -149 c4 -12 -17 -45 -29 -45
-2 0 -10 7 -19 15 -20 20 -10 45 19 45 13 0 25 -7 29 -15z"/>
<path d="M1336 1173 c-6 -14 -5 -15 5 -6 7 7 10 15 7 18 -3 3 -9 -2 -12 -12z"/>
<path d="M360 728 c-29 -74 -42 -96 -63 -106 -16 -8 666 -11 2341 -11 l2362
-1 0 75 0 75 -2314 0 -2314 0 -12 -32z"/>
</g>
</svg>
